<?xml version="1.0" encoding="utf-8"?>
<!-- Generator: Adobe Illustrator 23.1.0, SVG Export Plug-In . SVG Version: 6.00 Build 0)  -->
<svg version="1.1" xmlns="http://www.w3.org/2000/svg" xmlns:xlink="http://www.w3.org/1999/xlink" x="0px" y="0px"
	 viewBox="0 0 595.28 841.89" style="enable-background:new 0 0 595.28 841.89;" xml:space="preserve">
<style type="text/css">
	.st0{display:none;}
	.st1{display:inline;fill:#FFFFFF;stroke:#000000;stroke-miterlimit:10;}
</style>
<g id="Слой_1" class="st0">
	<path class="st1" d="M280,698.89c0-172,182-277.95,182-277.95"/>
	<path class="st1" d="M280,143c0,172,182,277.94,182,277.94"/>
	<path class="st1" d="M280,139.94c0,173.89-184,281-184,281"/>
	<path class="st1" d="M280,701.94c0-173.89-184-280.99-184-280.99"/>
</g>
<g id="Слой_2">
	<path d="M292.64,701.94c-5.54-127.48-223.37-271.86-271-271c47.63-0.86,279.1-176.24,281-281c-1.9,104.76,190.87,272.45,271,271
		C508.45,422.13,294.82,581.22,292.64,701.94z"/>
</g>
</svg>
